<svg width="66" height="66" viewBox="0 0 66 66" fill="none" xmlns="http://www.w3.org/2000/svg">
<g clip-path="url(#clip0_58_61)">
<path d="M33 66C51.2254 66 66 51.2254 66 33C66 14.7746 51.2254 0 33 0C14.7746 0 0 14.7746 0 33C0 51.2254 14.7746 66 33 66Z" fill="#1769FF"/>
<path d="M23.3138 18.0469C24.7368 18.0469 26.0357 18.1736 27.2105 18.4244C28.3853 18.6752 29.3885 19.087 30.2254 19.6599C31.0622 20.2328 31.7117 20.9931 32.1737 21.9435C32.6357 22.8939 32.8654 24.0661 32.8654 25.4626C32.8654 26.9701 32.5222 28.2267 31.8384 29.2326C31.1546 30.2384 30.1409 31.0621 28.8024 31.7036C30.6451 32.2342 32.0206 33.1635 32.9287 34.4888C33.8369 35.8141 34.291 37.4139 34.291 39.2857C34.291 40.7931 33.9979 42.0999 33.4118 43.2034C32.8257 44.307 32.0364 45.2072 31.0438 45.9042C30.0511 46.6038 28.9212 47.1186 27.6514 47.4538C26.3736 47.7891 25.0562 47.9581 23.7362 47.9554H9.23999V18.0469H23.3138ZM22.477 30.1513C23.6491 30.1513 24.6127 29.8714 25.3678 29.3144C26.1228 28.7547 26.5003 27.8492 26.4977 26.5926C26.4977 25.8956 26.371 25.3227 26.1202 24.8766C25.8694 24.4304 25.5341 24.0793 25.1143 23.8285C24.6945 23.5777 24.2141 23.4034 23.6702 23.3058C23.1105 23.2081 22.5429 23.1579 21.9727 23.1606H15.8189V30.1566L22.477 30.1513ZM22.8545 42.8418C23.4749 42.8444 24.0926 42.781 24.6972 42.6543C25.2833 42.5276 25.8007 42.319 26.2469 42.026C26.693 41.733 27.0494 41.3343 27.3161 40.8327C27.5801 40.3311 27.7147 39.687 27.7147 38.9055C27.7147 37.3717 27.2817 36.2734 26.4158 35.6187C25.5499 34.9614 24.4042 34.634 22.9812 34.634H15.8189V42.8444L22.8545 42.8418ZM42.5647 42.2134C43.457 43.0794 44.7427 43.5123 46.4191 43.5123C47.6203 43.5123 48.6525 43.2114 49.5185 42.6121C50.3844 42.0128 50.915 41.3766 51.1104 40.706H56.3455C55.5086 43.3038 54.223 45.1597 52.4911 46.2764C50.7593 47.3931 48.6658 47.9528 46.2079 47.9528C44.5051 47.9528 42.9686 47.6809 41.6011 47.137C40.2336 46.5932 39.0746 45.817 38.1242 44.8112C37.1738 43.8054 36.4399 42.6068 35.9251 41.2102C35.4103 39.8137 35.1516 38.2772 35.1516 36.6034C35.1516 34.9851 35.4156 33.4777 35.9462 32.0811C36.4769 30.6846 37.2319 29.4781 38.2087 28.459C39.1855 27.44 40.3524 26.6374 41.7067 26.0514C43.061 25.4653 44.5632 25.1722 46.2106 25.1722C48.0533 25.1722 49.6584 25.5286 51.0286 26.2414C52.3961 26.9542 53.5207 27.9099 54.3998 29.1111C55.279 30.3123 55.9152 31.6798 56.3059 33.2163C56.6966 34.7528 56.8365 36.3579 56.7257 38.0343H41.1022C41.184 39.9536 41.6724 41.3502 42.5647 42.2134ZM49.2888 30.8218C48.576 30.0404 47.4936 29.6497 46.0416 29.6497C45.0912 29.6497 44.3018 29.8107 43.6762 30.1302C43.0478 30.4522 42.5462 30.8482 42.1687 31.3234C41.7912 31.7986 41.5272 32.3002 41.3741 32.8309C41.2209 33.3615 41.1286 33.8367 41.1022 34.2538H50.7778C50.4953 32.749 49.999 31.6033 49.2888 30.8218ZM40.0831 19.5649H52.1717V22.9177H40.0831V19.5649Z" fill="white"/>
</g>
<defs>
<clipPath id="clip0_58_61">
<rect width="66" height="66" fill="white"/>
</clipPath>
</defs>
</svg>
