<svg width="92" height="92" viewBox="0 0 92 92" fill="none" xmlns="http://www.w3.org/2000/svg">
<circle cx="46" cy="46" r="46" fill="white"/>
<path d="M46.0001 15.1914C63.0157 15.1914 76.7829 28.9586 76.7829 45.9484C76.7829 62.9383 63.0157 76.7312 46.0001 76.7312C28.9845 76.7312 15.2173 62.9641 15.2173 45.9742C15.2173 28.9844 28.9845 15.1914 46.0001 15.1914Z" fill="#E74D89"/>
<path d="M46 78.9227C27.7984 78.9227 13 64.15 13 45.9742C13 27.7727 27.7984 13 46 13C64.2016 13 79 27.7727 79 45.9484C79 64.1242 64.2016 78.9227 46 78.9227ZM73.818 50.4602C72.8641 50.1508 65.1039 47.8563 56.2609 49.2484C59.9477 59.3547 61.443 67.6047 61.7266 69.3062C68.0688 65.0523 72.5805 58.2977 73.818 50.4602ZM57.0086 71.9102C56.5961 69.4352 54.9461 60.8242 51.0016 50.5633C50.95 50.5891 50.8727 50.6148 50.8211 50.6148C34.9141 56.1578 29.2164 67.1664 28.7008 68.1977C33.4703 71.9102 39.4773 74.1273 46 74.1273C49.893 74.1531 53.6312 73.3539 57.0086 71.9102ZM25.0656 64.8203C25.7102 63.7375 33.4445 50.95 47.9852 46.232C48.3461 46.1031 48.7328 46 49.0938 45.8969C48.3977 44.2984 47.6242 42.7 46.7992 41.1273C32.7227 45.3297 19.0586 45.1492 17.8211 45.1234C17.8211 45.407 17.7953 45.6906 17.7953 45.9742C17.8211 53.2188 20.5539 59.8188 25.0656 64.8203ZM18.4141 40.225C19.6773 40.2508 31.2789 40.3023 44.4789 36.7961C39.8125 28.4945 34.7594 21.5336 34.0375 20.5281C26.1227 24.2406 20.2445 31.5109 18.4141 40.225ZM39.4 18.6203C40.1734 19.6516 45.3039 26.6125 49.9187 35.0945C59.9477 31.3305 64.1758 25.6586 64.6914 24.9367C59.7156 20.5281 53.1672 17.8469 46 17.8469C43.7312 17.8469 41.5141 18.1305 39.4 18.6203ZM67.8109 28.1852C67.218 28.9844 62.5 35.043 52.0844 39.2969C52.7289 40.6375 53.3734 42.0039 53.9664 43.3703C54.1727 43.8602 54.3789 44.35 54.5852 44.8141C63.9695 43.6281 73.2766 45.5359 74.2047 45.7164C74.1273 39.0906 71.7555 32.9805 67.8109 28.1852Z" fill="#B2215A"/>
</svg>
