<svg width="68" height="51" viewBox="0 0 68 51" fill="none" xmlns="http://www.w3.org/2000/svg">
<g id="Group 1">
<path id="path466" d="M38.8467 11.448L49.8137 11.448L49.8137 39.1378C49.8137 39.8627 49.7471 40.568 49.6139 41.2537C49.5943 41.3516 49.5708 41.4496 49.5512 41.5475C49.2142 43.0913 48.5599 44.5136 47.6587 45.7518C45.6095 48.5572 42.3026 50.387 38.5724 50.387L0.613045 50.387C3.77894 44.8231 9.75025 41.2537 16.2975 41.2537L34.2585 41.2537C37.8045 41.2537 40.6843 38.3742 40.6843 34.8278L40.6843 15.9426C40.6843 14.1946 39.983 12.6078 38.8467 11.448Z" fill="white"/>
<path id="path468" d="M0.613183 0.386977L21.8027 0.386976C18.8954 2.35391 16.7718 5.42969 16.0782 9.07361C16.0508 9.21858 16.0234 9.36356 16.0038 9.51245C9.57015 9.41058 3.73206 5.8646 0.613183 0.386977Z" fill="white"/>
<path id="path470" d="M29.4351 0.386984L67.3867 0.386983C64.2208 5.94689 58.2495 9.51636 51.7022 9.51636L33.7412 9.51636C30.1992 9.51636 27.3154 12.4001 27.3154 15.9426L27.3154 34.8279C27.3154 36.5754 28.0168 38.1622 29.153 39.322L18.186 39.322L18.186 11.6326C18.186 10.9073 18.2526 10.202 18.3859 9.51636C19.3772 4.32476 23.9536 0.386985 29.4351 0.386984Z" fill="#525252"/>
<path id="path472" d="M51.9961 41.2576C58.4297 41.3595 64.2678 44.9054 67.3867 50.387L46.1893 50.387C47.4745 49.5171 48.6186 48.42 49.555 47.1349C50.6717 45.6068 51.4436 43.8945 51.8472 42.053L51.8628 41.9907C51.8824 41.8927 51.902 41.7948 51.9216 41.7004C51.949 41.5554 51.9765 41.4065 51.9961 41.2576Z" fill="#525252"/>
</g>
</svg>
