<svg width="92" height="92" viewBox="0 0 92 92" fill="none" xmlns="http://www.w3.org/2000/svg">
<circle cx="46" cy="46" r="46" fill="white"/>
<path d="M46 79C64.2254 79 79 64.2254 79 46C79 27.7746 64.2254 13 46 13C27.7746 13 13 27.7746 13 46C13 64.2254 27.7746 79 46 79Z" fill="url(#paint0_radial_58_122)"/>
<path d="M46.5618 67.3086C43.9152 67.2892 41.8226 67.2892 39.7301 67.2544C38.5676 67.2544 37.4283 67.1769 36.2774 67.0994C34.6991 67.0073 33.1484 66.6442 31.6932 66.026C30.3404 65.4597 29.1182 64.6216 28.1024 63.5638C27.0866 62.506 26.2987 61.2509 25.7877 59.8762C25.3765 58.7934 25.1019 57.6635 24.97 56.5127C24.8731 55.7106 24.8228 54.9084 24.7995 54.1024C24.7608 52.5524 24.7143 51.0024 24.7026 49.4291C24.7026 47.1389 24.7026 44.8488 24.7026 42.5586C24.7026 41.5627 24.7026 40.563 24.7375 39.5709C24.7724 38.5789 24.7995 37.6334 24.8576 36.6879C24.9327 34.9548 25.3159 33.249 25.9892 31.6503C26.5389 30.3558 27.3387 29.1825 28.3428 28.1976C29.3469 27.2128 30.5355 26.4359 31.8405 25.9114C33.1592 25.3712 34.5543 25.0404 35.9752 24.931C37.843 24.7643 39.7224 24.7256 41.5979 24.7256C44.9653 24.7256 48.3327 24.7256 51.7002 24.7256C53.0332 24.7256 54.3701 24.7992 55.6992 24.8883C57.2855 24.9744 58.8447 25.3363 60.3067 25.9579C61.6685 26.5268 62.8979 27.3713 63.9176 28.4383C64.9372 29.5053 65.7251 30.7717 66.2316 32.1579C66.6629 33.3065 66.9429 34.5062 67.0648 35.7269C67.1655 36.6259 67.1927 37.5249 67.2314 38.4394C67.3089 40.2297 67.305 42.0161 67.305 43.8064C67.305 46.2322 67.305 48.6579 67.305 51.0837C67.305 52.4168 67.2392 53.7498 67.1772 55.0828C67.1212 56.4464 66.8894 57.797 66.4874 59.1012C66.0834 60.4482 65.4258 61.7056 64.5499 62.8058C63.2751 64.4065 61.5747 65.6152 59.644 66.2933C58.4821 66.7092 57.2704 66.9698 56.0402 67.0684C55.0172 67.1497 53.9865 67.2117 52.9596 67.2311C50.6462 67.2737 48.3289 67.2892 46.5618 67.3086ZM28.5467 45.9958C28.5467 46.6623 28.5467 47.3249 28.5467 47.9876C28.5467 49.9251 28.5467 51.8355 28.6281 53.7614C28.6629 54.5597 28.6901 55.3579 28.7947 56.1484C28.9091 57.0919 29.157 58.0144 29.531 58.8881C30.1766 60.3823 31.3314 61.5989 32.7899 62.3214C33.8809 62.8558 35.0654 63.173 36.2774 63.2553C37.1803 63.3328 38.0871 63.3793 38.99 63.4064C40.2106 63.4452 41.4313 63.4607 42.648 63.4607C45.7042 63.4607 48.7603 63.4516 51.8164 63.4335C53.1146 63.4335 54.4166 63.3832 55.6915 63.2592C56.6718 63.1771 57.6357 62.9579 58.5552 62.6082C60.2087 61.9806 61.5592 60.7437 62.3295 59.1516C62.8572 58.0485 63.1665 56.8537 63.2401 55.6331C63.3176 54.6759 63.3641 53.7149 63.3912 52.7539C63.4261 51.5294 63.4377 50.301 63.4416 49.0765C63.4416 46.8057 63.4416 44.5362 63.4416 42.268C63.4416 41.1442 63.4145 40.0166 63.3835 38.8928C63.3602 37.9473 63.3292 36.9979 63.2207 36.0563C63.1219 35.1049 62.8897 34.1722 62.531 33.2856C61.8913 31.6902 60.6776 30.3921 59.1287 29.6469C58.0633 29.1345 56.9098 28.8306 55.7302 28.7518C54.7305 28.6665 53.7307 28.6161 52.7271 28.589C51.4328 28.5503 50.1385 28.5386 48.852 28.5425C45.0428 28.5425 41.2336 28.4766 37.4283 28.6588C36.5278 28.6892 35.6317 28.7994 34.7507 28.9882C33.8545 29.1747 32.9972 29.5142 32.2164 29.9918C30.8241 30.8623 29.7797 32.1918 29.2636 33.7506C28.918 34.8007 28.7185 35.8934 28.6707 36.9979C28.6087 38.1604 28.5622 39.3229 28.5506 40.5087C28.5428 42.3222 28.5506 45.9803 28.5467 45.9803V45.9958Z" fill="white"/>
<path d="M45.9884 56.9317C43.8246 56.9294 41.71 56.2857 39.9119 55.0818C38.1138 53.878 36.713 52.1681 35.8866 50.1683C35.0601 48.1685 34.845 45.9686 35.2686 43.8466C35.6921 41.7246 36.7353 39.7758 38.2662 38.2465C39.7971 36.7172 41.747 35.6761 43.8694 35.2548C45.9919 34.8335 48.1916 35.0509 50.1905 35.8795C52.1894 36.7081 53.8978 38.1107 55.0998 39.9101C56.3017 41.7094 56.9432 43.8247 56.9432 45.9886C56.9437 47.4268 56.6606 48.851 56.1101 50.1796C55.5597 51.5083 54.7526 52.7154 53.7351 53.7318C52.7176 54.7482 51.5096 55.554 50.1804 56.1031C48.8511 56.6522 47.4266 56.9338 45.9884 56.9317ZM38.9048 45.9653C38.8995 47.3698 39.3106 48.7444 40.0863 49.9152C40.862 51.0861 41.9674 52.0007 43.2628 52.5435C44.5582 53.0863 45.9854 53.2328 47.364 52.9647C48.7427 52.6965 50.0109 52.0256 51.0084 51.0368C52.0058 50.048 52.6877 48.7857 52.9679 47.4094C53.2482 46.0332 53.114 44.6047 52.5826 43.3046C52.0511 42.0046 51.1462 40.8912 49.9821 40.1054C48.8181 39.3195 47.4472 38.8964 46.0427 38.8895C45.1093 38.8849 44.1841 39.0643 43.32 39.4175C42.456 39.7707 41.6701 40.2908 41.0071 40.9479C40.3442 41.6051 39.8173 42.3865 39.4566 43.2474C39.0959 44.1083 38.9084 45.0319 38.9048 45.9653Z" fill="white"/>
<path d="M57.3965 32.0572C57.9032 32.0611 58.3972 32.2153 58.816 32.5004C59.2349 32.7855 59.5596 33.1886 59.749 33.6585C59.9384 34.1284 59.9839 34.644 59.8799 35.1398C59.7759 35.6357 59.5269 36.0894 59.1646 36.4436C58.8023 36.7977 58.3429 37.0363 57.8448 37.129C57.3468 37.2217 56.8324 37.1644 56.3669 36.9643C55.9014 36.7642 55.5059 36.4304 55.2304 36.0052C54.9549 35.58 54.812 35.0825 54.8196 34.5759C54.8318 33.9017 55.1091 33.2593 55.5914 32.7879C56.0736 32.3165 56.7222 32.054 57.3965 32.0572Z" fill="white"/>
<defs>
<radialGradient id="paint0_radial_58_122" cx="0" cy="0" r="1" gradientUnits="userSpaceOnUse" gradientTransform="translate(25.9543 76.8145) scale(71.7157 71.7157)">
<stop offset="0.03" stop-color="#FEDD76"/>
<stop offset="0.29" stop-color="#FB741E"/>
<stop offset="0.5" stop-color="#DE286F"/>
<stop offset="0.74" stop-color="#A030B6"/>
<stop offset="0.96" stop-color="#436DEF"/>
</radialGradient>
</defs>
</svg>
