<svg width="66" height="66" viewBox="0 0 66 66" fill="none" xmlns="http://www.w3.org/2000/svg">
<g clip-path="url(#clip0_58_70)">
<path d="M32.9999 0.000488281C14.7745 0.000488281 0 14.7749 0 33.0004C0 51.2259 14.7745 66.0003 32.9999 66.0003C51.2254 66.0003 66 51.2259 66 33.0004C65.9999 14.7749 51.2251 0.000488281 32.9999 0.000488281ZM24.1955 48.9544H16.95V25.5463H24.1955V48.9544ZM20.5382 22.4809C18.1719 22.4809 16.2536 20.5469 16.2536 18.1617C16.2536 15.7762 18.1722 13.8424 20.5382 13.8424C22.9043 13.8424 24.8226 15.7762 24.8226 18.1617C24.8227 20.5471 22.9044 22.4809 20.5382 22.4809ZM51.3479 48.9544H44.1375V36.6671C44.1375 33.2971 42.8574 31.4159 40.1927 31.4159C37.2925 31.4159 35.7774 33.3751 35.7774 36.6671V48.9544H28.8281V25.5463H35.7774V28.699C35.7774 28.699 37.8677 24.8323 42.8312 24.8323C47.7948 24.8323 51.348 27.863 51.348 34.1327L51.3479 48.9544Z" fill="url(#paint0_linear_58_70)"/>
</g>
<defs>
<linearGradient id="paint0_linear_58_70" x1="9.66545" y1="9.66593" x2="56.3344" y2="56.3349" gradientUnits="userSpaceOnUse">
<stop stop-color="#2489BE"/>
<stop offset="1" stop-color="#0575B3"/>
</linearGradient>
<clipPath id="clip0_58_70">
<rect width="66" height="66" fill="white"/>
</clipPath>
</defs>
</svg>
